<svg width="24" height="24" viewBox="0 0 24 24" fill="none" xmlns="http://www.w3.org/2000/svg">
<path d="M6.75 4H17.25C17.9503 3.99997 18.6242 4.26709 19.1343 4.74689C19.6444 5.22669 19.9522 5.88302 19.995 6.582L20 6.75V10.104C20.5451 10.2587 21.0291 10.578 21.386 11.0181C21.7429 11.4582 21.9552 11.9977 21.994 12.563L22 12.75V20.25C21.9999 20.44 21.9278 20.6229 21.798 20.7618C21.6683 20.9006 21.4907 20.9851 21.3011 20.998C21.1115 21.011 20.9241 20.9515 20.7767 20.8316C20.6293 20.7117 20.5329 20.5402 20.507 20.352L20.5 20.25V18H3.5V20.25C3.49999 20.4312 3.43436 20.6063 3.31523 20.7429C3.19611 20.8795 3.03155 20.9684 2.852 20.993L2.75 21C2.56876 21 2.39366 20.9344 2.25707 20.8152C2.12048 20.6961 2.03165 20.5316 2.007 20.352L2 20.25V12.75C2 11.491 2.846 10.43 4 10.103V6.75C3.99997 6.04971 4.26709 5.37579 4.74689 4.8657C5.22669 4.35561 5.88302 4.04778 6.582 4.005L6.75 4ZM19.25 11.5H4.75C4.44054 11.4999 4.14203 11.6145 3.91223 11.8218C3.68244 12.029 3.53769 12.3142 3.506 12.622L3.5 12.75V16.5H20.5V12.75C20.4999 12.4407 20.3851 12.1424 20.1779 11.9129C19.9707 11.6833 19.6857 11.5387 19.378 11.507L19.25 11.5ZM17.25 5.5H6.75C6.44054 5.49986 6.14203 5.61451 5.91223 5.82177C5.68244 6.02903 5.53769 6.31417 5.506 6.622L5.5 6.75V10H7C7 9.73478 7.10536 9.48043 7.29289 9.29289C7.48043 9.10536 7.73478 9 8 9H10C10.2449 9.00003 10.4813 9.08996 10.6644 9.25272C10.8474 9.41547 10.9643 9.63975 10.993 9.883L11 10H13C13 9.73478 13.1054 9.48043 13.2929 9.29289C13.4804 9.10536 13.7348 9 14 9H16C16.2449 9.00003 16.4813 9.08996 16.6644 9.25272C16.8474 9.41547 16.9643 9.63975 16.993 9.883L17 10H18.5V6.75C18.5001 6.44054 18.3855 6.14203 18.1782 5.91223C17.971 5.68244 17.6858 5.53769 17.378 5.506L17.25 5.5Z" fill="#ECB459"/>
</svg>
