<svg width="26" height="26" viewBox="0 0 26 26" fill="none" xmlns="http://www.w3.org/2000/svg">
<path fill-rule="evenodd" clip-rule="evenodd" d="M4.75565 2.53841C4.5173 2.30006 4.13086 2.30006 3.89251 2.53841C1.30016 5.13075 1.0085 9.2348 3.20818 12.1677L4.9592 14.5024C6.85495 17.0301 9.10035 19.2755 11.628 21.1712L13.9627 22.9223C16.8956 25.1219 20.9997 24.8303 23.592 22.2379C23.8304 21.9996 23.8304 21.6131 23.592 21.3748L19.6676 17.4504C19.3782 17.161 18.9091 17.161 18.6197 17.4504L17.1064 18.9637C16.6404 19.4297 15.9284 19.5452 15.339 19.2505C11.6784 17.4202 8.71022 14.452 6.87994 10.7915C6.5852 10.202 6.70074 9.49004 7.16676 9.02402L8.68006 7.51072C8.96943 7.22135 8.96943 6.75219 8.68006 6.46282L4.75565 2.53841ZM2.84461 1.4905C3.66169 0.673414 4.98646 0.673412 5.80355 1.4905L9.72796 5.41491C10.5961 6.28302 10.5961 7.69051 9.72796 8.55862L8.21466 10.0719C8.19969 10.0869 8.19598 10.1098 8.20545 10.1287C9.89233 13.5025 12.628 16.2381 16.0017 17.925C16.0207 17.9345 16.0435 17.9307 16.0585 17.9158L17.5718 16.4025C18.4399 15.5344 19.8474 15.5344 20.7155 16.4025L24.6399 20.3269C25.457 21.144 25.457 22.4687 24.6399 23.2858C21.5261 26.3997 16.5964 26.75 13.0735 24.1078L10.7388 22.3568C8.09883 20.3768 5.75364 18.0316 3.77364 15.3916L2.02261 13.0569C-0.61957 9.53398 -0.269232 4.60434 2.84461 1.4905Z" fill="#800000"/>
</svg>
