<svg width="24" height="24" viewBox="0 0 24 24" fill="none" xmlns="http://www.w3.org/2000/svg">
<g clip-path="url(#clip0_25_57)">
<path d="M22.4734 11.5267L12.4734 1.52666C12.3484 1.4025 12.1795 1.3328 12.0034 1.3328C11.8272 1.3328 11.6583 1.4025 11.5334 1.52666L1.53335 11.5267C1.42413 11.6542 1.36706 11.8182 1.37354 11.986C1.38002 12.1538 1.44958 12.313 1.56831 12.4317C1.68704 12.5504 1.8462 12.62 2.01398 12.6265C2.18177 12.633 2.34582 12.5759 2.47335 12.4667L12 2.94L21.5267 12.4733C21.6542 12.5825 21.8183 12.6396 21.9861 12.6331C22.1538 12.6267 22.313 12.5571 22.4317 12.4384C22.5505 12.3196 22.62 12.1605 22.6265 11.9927C22.633 11.8249 22.5759 11.6609 22.4667 11.5333L22.4734 11.5267Z" fill="#ECB459"/>
<path d="M18.6667 21.3333H15.3333V14.6667H8.66667V21.3333H5.33333V12L4 13.3333V21.3333C4 21.687 4.14048 22.0261 4.39052 22.2761C4.64057 22.5262 4.97971 22.6667 5.33333 22.6667H10V16H14V22.6667H18.6667C19.0203 22.6667 19.3594 22.5262 19.6095 22.2761C19.8595 22.0261 20 21.687 20 21.3333V13.1733L18.6667 11.84V21.3333Z" fill="#ECB459"/>
</g>
<defs>
<clipPath id="clip0_25_57">
<rect width="24" height="24" fill="white"/>
</clipPath>
</defs>
</svg>
