<svg width="26" height="26" viewBox="0 0 26 26" fill="none" xmlns="http://www.w3.org/2000/svg">
<path fill-rule="evenodd" clip-rule="evenodd" d="M9.56786 5.95833H20.0155C21.1954 5.95832 22.1464 5.95831 22.8944 6.05886C23.6709 6.16327 24.3248 6.38664 24.8441 6.90593C25.3633 7.42523 25.5867 8.07908 25.6911 8.85564C25.7917 9.60362 25.7917 10.5546 25.7917 11.7345V17.0057C25.7917 18.1855 25.7917 19.1366 25.6911 19.8846C25.5867 20.6611 25.3633 21.315 24.8441 21.8343C24.3248 22.3535 23.6709 22.5769 22.8944 22.6813C22.1464 22.7819 21.1954 22.7819 20.0155 22.7819H9.56788C8.38799 22.7819 7.43696 22.7819 6.68898 22.6813C5.91242 22.5769 5.25857 22.3535 4.73926 21.8343C4.21997 21.315 3.99661 20.6611 3.8922 19.8846C3.79165 19.1366 3.79166 18.1855 3.79167 17.0057V11.7345C3.79166 10.5546 3.79165 9.60362 3.8922 8.85564C3.99661 8.07908 4.21997 7.42523 4.73926 6.90593C5.25857 6.38664 5.91242 6.16327 6.68898 6.05886C7.43696 5.95831 8.38798 5.95832 9.56786 5.95833ZM6.86142 7.34145C6.22837 7.42655 5.89313 7.58223 5.65435 7.82101C5.41557 8.05979 5.25989 8.39503 5.17479 9.02808C5.08716 9.67976 5.08579 10.5435 5.08579 11.7819V16.9583C5.08579 18.1967 5.08716 19.0605 5.17479 19.7121C5.25989 20.3452 5.41557 20.6805 5.65435 20.9192C5.89313 21.158 6.22837 21.3137 6.86142 21.3987C7.5131 21.4863 8.37681 21.4877 9.6152 21.4877H19.9681C21.2065 21.4877 22.0703 21.4863 22.7219 21.3987C23.355 21.3137 23.6903 21.158 23.929 20.9192C24.1678 20.6805 24.3235 20.3452 24.4085 19.7121C24.4961 19.0605 24.4976 18.1967 24.4976 16.9583V11.7819C24.4976 10.5435 24.4961 9.67976 24.4085 9.02808C24.3235 8.39503 24.1678 8.05979 23.929 7.82101C23.6903 7.58223 23.355 7.42655 22.7219 7.34145C22.0703 7.25382 21.2065 7.25245 19.9681 7.25245H9.6152C8.37681 7.25245 7.5131 7.25382 6.86142 7.34145Z" fill="#2A8E4B"/>
<mask id="mask0_1_11" style="mask-type:alpha" maskUnits="userSpaceOnUse" x="4" y="9" width="22" height="7">
<path fill-rule="evenodd" clip-rule="evenodd" d="M13.1636 14.9437L4.09109 10.4075L4.6621 9.26546L13.7346 13.8017C14.2738 14.0713 14.9084 14.0713 15.4476 13.8017L24.5201 9.26546L25.0911 10.4075L16.0186 14.9437C15.12 15.3931 14.0622 15.3931 13.1636 14.9437Z" fill="#2A8E4B"/>
</mask>
<g mask="url(#mask0_1_11)">
<path d="M4.09109 10.4075L2.94907 9.83647L2.37807 10.9785L3.52007 11.5495L4.09109 10.4075ZM13.1636 14.9437L13.7346 13.8017L13.1636 14.9437ZM4.66209 9.26546L5.2331 8.12345L4.09109 7.55243L3.52007 8.69445L4.66209 9.26546ZM13.7346 13.8017L13.1636 14.9437L13.7346 13.8017ZM15.4476 13.8017L14.8766 12.6597L15.4476 13.8017ZM24.5201 9.26546L25.6621 8.69445L25.0911 7.55243L23.9491 8.12345L24.5201 9.26546ZM25.0911 10.4075L25.6621 11.5495L26.8041 10.9785L26.2331 9.83647L25.0911 10.4075ZM16.0186 14.9437L16.5897 16.0858L16.0186 14.9437ZM3.52007 11.5495L12.5926 16.0858L13.7346 13.8017L4.66209 9.26546L3.52007 11.5495ZM3.52007 8.69445L2.94907 9.83647L5.2331 10.9785L5.80411 9.83647L3.52007 8.69445ZM14.3056 12.6597L5.2331 8.12345L4.09109 10.4075L13.1636 14.9437L14.3056 12.6597ZM14.8766 12.6597C14.6968 12.7496 14.4854 12.7496 14.3056 12.6597L13.1636 14.9437C14.0622 15.3931 15.1199 15.3931 16.0186 14.9437L14.8766 12.6597ZM23.9491 8.12345L14.8766 12.6597L16.0186 14.9437L25.0911 10.4075L23.9491 8.12345ZM26.2331 9.83647L25.6621 8.69445L23.3781 9.83647L23.9491 10.9785L26.2331 9.83647ZM16.5897 16.0858L25.6621 11.5495L24.5201 9.26546L15.4476 13.8017L16.5897 16.0858ZM12.5926 16.0858C13.8507 16.7147 15.3315 16.7147 16.5897 16.0858L15.4476 13.8017C14.9084 14.0713 14.2738 14.0713 13.7346 13.8017L12.5926 16.0858Z" fill="#2A8E4B"/>
</g>
</svg>
